{
    "accessors" : [
        {
            "bufferView" : 0, 
            "componentType" : 5123, 
            "count" : 2904, 
            "max" : [
                1965
            ], 
            "min" : [
                0
            ], 
            "type" : "SCALAR"
        }, 
        {
            "bufferView" : 1, 
            "componentType" : 5126, 
            "count" : 1966, 
            "max" : [
                1.3671875, 
                0.984375, 
                0.8515625
            ], 
            "min" : [
                -1.3671875, 
                -0.984375, 
                -0.8515625
            ], 
            "type" : "VEC3"
        }, 
        {
            "bufferView" : 2, 
            "componentType" : 5126, 
            "count" : 1966, 
            "max" : [
                1.0, 
                0.9970182180404663, 
                1.0
            ], 
            "min" : [
                -1.0, 
                -0.992402970790863, 
                -0.9864740371704102
            ], 
            "type" : "VEC3"
        }
    ], 
    "asset" : {
        "generator" : "Khronos Blender glTF 2.0 exporter", 
        "version" : "2.0"
    }, 
    "bufferViews" : [
        {
            "buffer" : 0, 
            "byteLength" : 5808, 
            "byteOffset" : 0, 
            "target" : 34963
        }, 
        {
            "buffer" : 0, 
            "byteLength" : 23592, 
            "byteOffset" : 5808, 
            "target" : 34962
        }, 
        {
            "buffer" : 0, 
            "byteLength" : 23592, 
            "byteOffset" : 29400, 
            "target" : 34962
        }
    ], 
    "buffers" : [
        {
            "byteLength" : 52992, 
            "uri" : "suzane_test_1.0.bin"
        }
    ], 
    "materials" : [
        {
            "name" : "Material.001", 
            "pbrMetallicRoughness" : {
                "baseColorFactor" : [
                    0.6400000190734865, 
                    0.6400000190734865, 
                    0.6400000190734865, 
                    1.0
                ], 
                "metallicFactor" : 0.0
            }
        }
    ], 
    "meshes" : [
        {
            "name" : "Suzanne", 
            "primitives" : [
                {
                    "attributes" : {
                        "NORMAL" : 2, 
                        "POSITION" : 1
                    }, 
                    "indices" : 0, 
                    "material" : 0
                }
            ]
        }
    ], 
    "nodes" : [
        {
            "name" : "Camera", 
            "rotation" : [
                0.48170700669288635, 
                0.3342514932155609, 
                -0.21292175352573395, 
                0.7816000580787659
            ], 
            "scale" : [
                1.0, 
                1.0, 
                0.9999999403953552
            ], 
            "translation" : [
                7.481131553649902, 
                5.34366512298584, 
                6.5076398849487305
            ]
        }, 
        {
            "name" : "Hemi", 
            "rotation" : [
                -0.05856012925505638, 
                -0.2137407809495926, 
                0.25766873359680176, 
                0.9404746890068054
            ], 
            "translation" : [
                -1.8577969074249268, 
                4.79240083694458, 
                -0.825347900390625
            ]
        }, 
        {
            "name" : "Lamp", 
            "rotation" : [
                0.16907575726509094, 
                0.7558802962303162, 
                -0.27217137813568115, 
                0.570947527885437
            ], 
            "scale" : [
                1.0, 
                1.0, 
                0.9999999403953552
            ], 
            "translation" : [
                4.076245307922363, 
                5.903861999511719, 
                -1.0054539442062378
            ]
        }, 
        {
            "name" : "Sun", 
            "translation" : [
                1.8114471435546875, 
                0.3757171630859375, 
                5.815869331359863
            ]
        }, 
        {
            "mesh" : 0, 
            "name" : "Suzanne", 
            "translation" : [
                0.9221343994140625, 
                0.6855621337890625, 
                0.29319000244140625
            ]
        }
    ], 
    "scene" : 0, 
    "scenes" : [
        {
            "name" : "Scene", 
            "nodes" : [
                1, 
                3, 
                4, 
                2, 
                0
            ]
        }
    ]
}
